#!OML:ASF H:\LiuWeirdWalks\Patient Classification 1\Patient 1\Session 1\male.ASF
:FULLY-SPECIFIED
:DEGREES
393
root 0.855551 18.7874 -15.0395 8.38794 9.04303 -0.588895
lowerback 13.0873 -2.59492 -1.17729
upperback -0.992703 -3.35981 3.35186
thorax -8.14318 -1.49521 4.91744
lowerneck -22.2591 2.71245 7.38722
upperneck 15.9478 2.99336 -7.79195
head 8.8787 1.00499 -3.47475
rclavicle -1.08338e-014 -1.82882e-014
rhumerus -53.9008 11.2414 -79.371
rradius 59.8321
rwrist -6.57181
rhand -17.4967 -3.7674
rfingers 7.12502
rthumb 8.75603 -33.5658
lclavicle -1.08338e-014 -1.82882e-014
lhumerus -28.7318 -7.82746 65.8245
lradius 61.6366
lwrist 3.6366
lhand -24.4632 -15.8308
lfingers 7.12502
lthumb 2.02996 14.1393
rfemur -29.882 -9.33098 22.87
rtibia 45.6703
rfoot 4.23524 -12.8568
rtoes -17.0753
lfemur -7.30265 3.60639 -18.8345
ltibia 42.4104
lfoot 15.0894 9.22059
ltoes -15.397
394
root 0.831404 18.8512 -14.8433 8.10624 8.93143 -1.28054
lowerback 13.0969 -2.51966 -0.438671
upperback -0.955854 -3.12745 3.5264
thorax -8.15951 -1.41016 4.64125
lowerneck -22.108 2.54442 7.18077
upperneck 15.8934 2.82112 -7.72157
head 8.81521 0.921929 -3.43896
rclavicle -2.05742e-014 2.22639e-014
rhumerus -53.9923 11.3239 -79.2882
rradius 59.5569
rwrist -6.57961
rhand -17.5256 -3.72187
rfingers 7.12502
rthumb 8.7282 -33.5214
lclavicle -2.05742e-014 2.22639e-014
lhumerus -29.6439 -7.63243 65.3921
lradius 60.5384
lwrist 3.39682
lhand -24.3378 -16.0189
lfingers 7.12502
lthumb 2.15116 13.95
rfemur -28.3307 -9.04135 23.6259
rtibia 44.3575
rfoot 4.71413 -12.7912
rtoes -17.4395
lfemur -8.67203 3.70065 -18.1274
ltibia 44.794
lfoot 13.7441 8.98952
ltoes -13.2079
395
root 0.809586 18.9044 -14.6516 7.80339 8.74986 -2.06607
lowerback 13.1441 -2.41697 0.38625
upperback -0.891238 -2.84254 3.72512
thorax -8.16998 -1.30286 4.3327
lowerneck -22.0658 2.40234 7.00752
upperneck 15.9054 2.67548 -7.67784
head 8.79694 0.848246 -3.41556
rclavicle 1.01579e-013 -3.89618e-014
rhumerus -54.0183 11.378 -79.196
rradius 59.2655
rwrist -6.62718
rhand -17.5465 -3.69521
rfingers 7.12502
rthumb 8.70803 -33.4956
lclavicle 1.01579e-013 -3.89618e-014
lhumerus -30.5113 -7.40771 65.0047
lradius 59.4353
lwrist 3.14518
lhand -24.3112 -16.2934
lfingers 7.12502
lthumb 2.17679 13.6752
rfemur -26.8725 -8.74945 24.4929
rtibia 43.174
rfoot 5.22218 -12.7157
rtoes -17.7522
lfemur -10.0889 3.73836 -17.3828
ltibia 47.0333
lfoot 11.6111 9.07297
ltoes -11.2877
396
root 0.790473 18.9475 -14.4646 7.4879 8.49129 -2.88974
lowerback 13.2628 -2.29523 1.24699
upperback -0.814643 -2.5237 3.92688
thorax -8.20609 -1.17987 4.00365
lowerneck -22.0913 2.26251 6.8171
upperneck 15.9102 2.52829 -7.60864
head 8.78748 0.77424 -3.3807
rclavicle -1.19271e-015 -1.59028e-014
rhumerus -53.9891 11.4087 -79.1124
rradius 58.9509
rwrist -6.67503
rhand -17.552 -3.67184
rfingers 7.12502
rthumb 8.70265 -33.4724
lclavicle -1.19271e-015 -1.59028e-014
lhumerus -31.3739 -7.14081 64.641
lradius 58.3491
lwrist 2.89562
lhand -24.3842 -16.6059
lfingers 7.12502
lthumb 2.10635 13.3634
rfemur -25.5227 -8.48481 25.4048
rtibia 42.1565
rfoot 5.74654 -12.6031
rtoes -18.013
lfemur -11.5321 3.7052 -16.6578
ltibia 49.0111
lfoot 9.00319 9.47875
ltoes -9.78457
397
root 0.773564 18.9814 -14.2824 7.17257 8.14311 -3.71666
lowerback 13.4529 -2.15195 2.09905
upperback -0.72775 -2.17347 4.12176
thorax -8.26638 -1.04111 3.66832
lowerneck -22.1731 2.1636 6.68333
upperneck 15.9156 2.42181 -7.56711
head 8.79267 0.718832 -3.35944
rclavicle -3.97569e-015 3.18055e-015
rhumerus -53.8921 11.3918 -79.0346
rradius 58.6076
rwrist -6.68766
rhand -17.4953 -3.68245
rfingers 7.12502
rthumb 8.75741 -33.4808
lclavicle -3.97569e-015 3.18055e-015
lhumerus -32.2364 -6.8226 64.2917
lradius 57.2973
lwrist 2.68171
lhand -24.5173 -16.9417
lfingers 7.12502
lthumb 1.97776 13.0289
rfemur -24.3015 -8.2397 26.319
rtibia 41.3381
rfoot 6.27049 -12.4419
rtoes -18.2424
lfemur -12.9883 3.60116 -15.9843
ltibia 50.6351
lfoot 6.17955 9.94801
ltoes -8.51876
